<svg xmlns="http://www.w3.org/2000/svg" viewBox="0 0 361.67 87.39"><defs><style>.a{fill:#261c43;}.b{fill:#ce0686;}</style></defs><title>logo-nosto</title><path class="a" d="M236.69,26.11c-16.48,0-28.91,12.59-28.91,28.2s12.44,28.08,28.91,28.08,28.91-12.48,28.91-28.08S253.17,26.11,236.69,26.11Zm0,42.9c-8.52,0-14.34-6.57-14.34-14.71s5.83-14.82,14.34-14.82S251,46.17,251,54.31,245.21,69,236.69,69Z"/><path class="a" d="M187.79,12.18H173.22V58.42c0,7.69,1.23,12.48,4,16.16,3.7,4.9,10.09,7.8,18.83,7.8a36.06,36.06,0,0,0,9.08-1.12L202.92,69a35.48,35.48,0,0,1-5.94.56c-3.59,0-5.94-1-7.4-2.67-1.23-1.45-1.8-3.46-1.8-6.8V39.49h17.94V27.23H187.79Z"/><path class="a" d="M138.19,42.72c0-2.79,3.36-4.35,7.4-4.35A18.41,18.41,0,0,1,156,42l6.84-10.48c-3.59-2.79-11.32-5.46-18.38-5.46-10.76,0-20.84,6.46-20.84,16.83,0,17.38,26.34,14.49,26.34,22.62,0,2.68-3,4.57-6.95,4.57a23,23,0,0,1-14.91-5.35L121,75.14a37.73,37.73,0,0,0,21.86,7.25c11.43,0,21.63-6.35,21.63-16.71C164.53,47,138.19,49.73,138.19,42.72Z"/><path class="a" d="M89.55,26.11c-16.48,0-28.91,12.59-28.91,28.19S73.07,82.39,89.55,82.39s28.91-12.48,28.91-28.08S106,26.11,89.55,26.11Zm0,42.9C81,69,75.2,62.44,75.2,54.31S81,39.49,89.55,39.49s14.34,6.68,14.34,14.82S98.06,69,89.55,69Z"/><path class="a" d="M29.37,26.11A24,24,0,0,0,14,31.57V27.23H0v54H14.57V46.17A17.4,17.4,0,0,1,27.8,39.49a11.49,11.49,0,0,1,8.18,3c2,2,3.25,4.79,3.25,10.14V81.27H53.8V53.75c0-9.25-2-14.71-5.6-18.94A24.56,24.56,0,0,0,29.37,26.11Z"/><path class="b" d="M350.65,0h-59.2a17.18,17.18,0,0,0,0,34.35h12L283.15,54.63a11,11,0,0,0,0,15.59l8.71,8.71a11,11,0,0,0,15.59,0L327.31,59V70.21a17.18,17.18,0,1,0,34.35,0V11A11,11,0,0,0,350.65,0Zm3.68,70.22a9.83,9.83,0,1,1-19.67,0V41.31L302.25,73.73a3.67,3.67,0,0,1-5.2,0L288.34,65a3.68,3.68,0,0,1,0-5.2L321.15,27h-29.7a9.83,9.83,0,0,1,0-19.67h59.2A3.67,3.67,0,0,1,354.32,11Z"/></svg>